<?xml version="1.0" encoding="UTF-8"?>
<svg id="Layer_1" data-name="Layer 1" xmlns="http://www.w3.org/2000/svg" viewBox="0 0 395.08 205">
  <defs>
    <style>
      .cls-1, .cls-2 {
        fill: none;
      }

      .cls-1, .cls-2, .cls-3 {
        stroke-miterlimit: 10;
      }

      .cls-1, .cls-4, .cls-3 {
        stroke: #000;
      }

      .cls-2 {
        stroke: #fff;
      }

      .cls-5 {
        stroke-width: 0px;
      }

      .cls-4 {
        stroke-linecap: round;
        stroke-linejoin: round;
      }

      .cls-4, .cls-3 {
        fill: #fff;
      }
    </style>
  </defs>
  <path class="cls-5" d="M293.7,100.51c-.08-.14-.16-.28-.25-.42-.04-.04-.16-.2-.22-.26-.3-.31-.62-.59-.96-.86-1.45-1.19-2.87-2.37-4.21-3.69-1.38-1.35-2.69-2.78-4.12-4.08-1-.91-2.01-1.81-2.85-2.86-.53-.18-1-.53-1.32-1.07-.28-.47-.36-1.05-.29-1.61-1.03-1.01-2.04-2.05-3.03-3.11-.32-.04-.64-.14-.93-.31-1.7-1.01-3.05-2.48-4.33-3.96-1.26-1.47-2.58-2.84-3.97-4.2-1.6-1.56-3.21-3.1-4.7-4.77-1.35-1.52-2.58-3.19-4.18-4.46-1.06-.84-.87-2.66,0-3.54.76-.76,1.75-.85,2.63-.51-2.28-4.69-4.13-9.49-5.54-14.42-1.2-.46-2.4-.97-3.61-1.5-.06.05-.13.1-.19.15.27,1.07.29,2.18-.29,3.17-.53.91-1.49,1.69-2.51,1.99-.87.26-1.74.16-2.5-.23-.13.13-.28.25-.44.36-1.14.74-2.75.23-3.42-.9-.03-.05-.07-.1-.1-.15-.31-.35-.65-.67-1.02-.96-.68-.5-1.36-1-1.99-1.56-.66-.59-1.05-1.34-1.52-2.06-.09-.1-.19-.19-.29-.28-.45-.31-.9-.62-1.31-.98-2.03-1.28-3.32-3.23-4.9-4.99-1.73-1.92-3.91-3.36-5.74-5.17-.45-.45-.67-1.02-.7-1.6-.65-.31-1.19-.87-1.34-1.56-1.9-.79-3.23-2.54-4.53-4.07-.77-.91-1.68-1.68-2.54-2.51-.97-.94-1.93-1.89-2.88-2.85-.27-.27-.46-.59-.57-.93-.11-.08-.22-.16-.31-.26-.51-.51-.98-1.06-1.48-1.58-.48-.5-1.02-.93-1.53-1.4-.96-.89-1.66-2.01-2.62-2.89-.1-.1-.21-.19-.32-.28-.02-.02-.07-.06-.12-.1-.05-.04-.1-.08-.13-.09-.12-.09-.24-.18-.37-.26-.49-.35-.99-.69-1.47-1.06-1.11-.84-2.2-1.73-2.86-2.99-.05-.1-.09-.19-.13-.29-.08-.05-.15-.11-.22-.17-1.31-1.17-2.23-2.7-3.6-3.81-1.15-.93-1.9-2.25-3.02-3.21-.07-.05-.14-.1-.22-.14-.29-.17-.53-.38-.71-.63-.45.62-1.06,1.12-1.65,1.59-1.07.85-2.3,2.1-3.35,3.18-1.17,1.2-2.18,2.39-3.09,3.66-1.05,1.45-2.38,2.58-3.93,3.46-.06.03-.12.05-.18.08-.89,1.14-1.88,2.21-3.01,3.16-.21.18-.45.32-.69.43-.08.12-.17.23-.27.31-1.08.87-1.95,1.96-2.83,3.03-1.02,1.24-2.07,2.35-3.38,3.29-.04.03-.09.04-.13.06-.13.25-.29.49-.48.73-1.21,1.52-2.89,2.58-4.1,4.1-1.06,1.43-2.21,3.05-3.88,3.65-.11.2-.24.38-.39.55-.88.95-1.8,1.87-2.74,2.76-.72.68-1.45,1.38-2.08,2.15-.13.19-.25.38-.34.59-.21.47-.74.83-1.2,1.02-.05.02-.09.02-.14.04-.03.04-.06.08-.1.11-1.13,1.05-2.14,2.23-3.29,3.26-.29.27-.59.53-.89.79-.15.2-.3.39-.47.58-.21.25-.44.48-.66.72-.09.1-.17.2-.26.29-.02.03-.04.05-.05.08-.26.39-.6.68-.98.89-.1.18-.22.36-.38.51-.45.41-.85.86-1.23,1.33-.08.1-.15.2-.23.31-.22.38-.52.67-.9.9-.2.08-.4.17-.6.25-.44.12-.89.12-1.33,0-.2-.08-.4-.17-.6-.25-.29-.16-.53-.37-.7-.64-.12-.13-.22-.28-.3-.44-.06-.05-.12-.1-.18-.15-.77-.28-1.35-.87-1.58-1.67-2.72,1.96-5.46,3.89-8.21,5.79-1.72,1.18-3.46,2.33-5.22,3.47,4.42-.04,7.34,6.6,2.6,9.33-3.2,1.85-5.35,5.98-8.15,8.42-2.4,2.09-4.03,5.16-6.97,6.51-.34.69-.86,1.3-1.6,1.75-.32,1.05-1.04,1.98-2.28,2.54-.27.13-.55.26-.83.38.64-.23.08-.08-.37.6-.7,1.06-1.62,1.51-2.44,2.38-1.18,1.26-2.14,2.8-3.37,4.07-3.14,3.27-6.74,5.78-9.63,9.23-.33.4-.69.71-1.05.96.69.87,1.4,1.71,2.32,2.58,1.62,1.52,3.02,3.23,4.71,4.75,4.33,3.9,8.07,8.37,12.08,12.59,4.3,4.53,8.85,8.82,13.2,13.3,2.39,2.46,5.01,4.6,7.04,7.29.8.45,1.48,1.2,1.94,1.92.67,1.04.78,2.32.57,3.51-.08.79-.33,1.56-.7,2.23,3.96,1.99,7.68,4.39,11.19,7.16.12-.21.26-.41.42-.59.42-.46,1.15-.73,1.77-.73.56,0,1.4.26,1.77.73.79,1.01,1.84,1.77,2.74,2.67.84.85,1.58,1.82,2,2.91.46.37.92.74,1.37,1.13.58.51,1.02,1.12,1.47,1.74.15.18.31.35.49.51.01,0,.02.02.03.03.17.1.34.21.49.34,2.29,2.01,4.66,4.02,6.77,6.22,1.98,2.07,3.71,4.33,5.87,6.24,1.12,1,2.13,2,3.02,3.22.17.23.32.47.48.71.42.46.83.94,1.21,1.43.65.82,1.27,1.67,1.9,2.51.19.09.39.18.57.29.78.48,1.25,1.11,1.5,1.82.27.19.53.39.8.59,1.25.95,2.42,1.97,3.16,3.39.1.19.17.39.22.58.79.78,1.58,1.57,2.37,2.35,1.43,1.38,2.68,2.89,4.04,4.33.28.29.57.58.88.85.06.04.18.13.24.18.17.12.34.23.52.35.47.32.96.64,1.4,1.01.06-.02.13-.04.2-.07,1.02-.47,1.98-1.06,2.88-1.73.87-.7,1.7-1.47,2.39-2.34-.11.14-.22.28-.33.42.25-.32.5-.58.79-.79,3.18-3.61,6.59-7.02,10.19-10.22-.08-.65.11-1.34.74-1.93,2.87-2.74,5.95-5.15,8.67-8.04,2.77-2.94,5.72-5.7,8.65-8.47,1.41-1.33,2.89-2.63,4.19-4.07,1.2-1.33,2.25-2.79,3.51-4.06,1.44-1.45,3.13-2.64,4.58-4.08,1-1,1.7-2.14,2.72-3.06.06-.18.13-.36.24-.6.27-.58.91-.96,1.49-1.15.64-.21,1.35-.05,1.93.25.54.29.99.91,1.15,1.49.07.24.08.47.07.69,3.68-3.82,7.6-7.35,11.67-10.73-.06-.08-.13-.16-.19-.25-.91.07-1.79-.34-2.34-1.2-.7-1.09-.27-2.82.9-3.42.16-.08.29-.19.44-.28.18-.23.4-.44.67-.61.07-.04.13-.09.19-.13.25-.21.5-.43.73-.67.61-.66,1.18-1.36,1.79-2.02.32-.35.64-.69,1-1.01.26-.23.54-.39.84-.51.07-.46.29-.92.72-1.34,1.51-1.48,3.17-2.75,4.85-4.02.11-.86.64-1.66,1.74-1.96.06-.02.08-.02.1-.01,0-.01,0-.02.04-.06-.1.13.34-.3.39-.35.47-.45.91-.93,1.33-1.42.74-.86,1.45-1.74,2.23-2.56,2.37-2.49,4.98-4.76,7.39-7.21,2.61-2.65,5.13-5.38,7.79-7.98,1.17-1.15,2.44-2.18,3.76-3.15-.03-.42.06-.85.24-1.25-.1-.14-.19-.29-.28-.44ZM159.91,70.94c.99-.02,1.96.12,2.92.37-.2-.94.13-1.79.8-2.36-.72-.43-1.43-.88-2.12-1.34-.03,0-.05,0-.08,0-.33-.02-.64-.11-.93-.3-.1-.05-.18-.12-.27-.19,0,0-.02,0-.02,0-.2-.08-.4-.17-.6-.25-.38-.22-.67-.52-.9-.9-.08-.2-.17-.4-.25-.6-.1-.33-.12-.66-.04-1,.02-.33.11-.64.3-.93.16-.29.37-.53.64-.7.15-.13.31-.23.49-.31.03-.03.04-.06.07-.08,1.14-.96,2.25-1.95,3.34-2.96,0-.03,0-.06.01-.09.65-2.39,2.7-3.91,4.41-5.54.42-.4.84-.79,1.29-1.14.24-.19.48-.37.72-.56.02-.03.03-.06.05-.09.22-.38.52-.67.9-.9.2-.08.4-.17.6-.25,0,0,0,0,0,0,.24-.17.49-.34.73-.51.17-.2.34-.4.52-.58.11-.13.21-.27.34-.38.42-.45.79-.94,1.24-1.36.34-.38.71-.72,1.17-.97.21-.11.43-.2.65-.29,4.18-4.61,8.03-9.81,13.33-13.22.08-.74.47-1.43,1.13-1.83.07-.07.15-.13.24-.2.14-.1.27-.2.41-.29,0,0,0-.02.01-.02,0,0,0,0,0,0,.12-.4.31-.72.56-1.04.63-1.18,1.75-1.4,2.73-1.05.09.01.17.03.21.04.02,0,.59.25.6.25.17.1.39.28.53.42.2.2.36.45.52.68.07.1.14.2.2.3.07.11.14.21.21.32.09.04.17.07.26.11.01,0,.02.01.03.02.2.13.39.27.56.43,0,0,.02.02.02.03.15.17.28.35.41.53.02.02.03.04.04.07.11.22.2.44.28.67,0,.03,0,.06.01.09.03.02.07.03.1.05,2.53,1.51,4.06,4.14,5.98,6.28.28.31.55.62.83.94.97.68,1.86,1.44,2.73,2.24.83.76,1.71,1.34,2.46,2.15.02.02.04.04.05.07.56.47,1.04,1.03,1.47,1.72.12.2.23.4.35.6.58.57,1.29,1.04,2.01,1.64,1.64,1.35,2.86,3.1,4.35,4.61,1.61,1.62,3.35,3.11,5.02,4.67.32.3.52.69.63,1.1,1.68,1.48,3.34,2.98,4.85,4.6.69.74,1.07,2.14.39,3.03-2.94,3.85-6.67,6.99-9.94,10.54-1.83,2-3.89,3.77-5.89,5.59-.02.49-.07.99-.14,1.5-.2,1.37-1.89,2.04-3.08,1.75-.04,0-.07-.02-.11-.03-.42.45-.84.91-1.24,1.39-.93,1.11-2.57.81-3.54,0-1.63-1.36-3.73-2.08-5.43-3.37-.99-.75-1.63-1.76-2.3-2.75-.45-.08-.9-.17-1.34-.27-.26.41-.5.83-.74,1.23-.7,1.17-1.51,2.27-2.45,3.27-1.92,2.05-4.3,3.61-6.21,5.67-1.14,1.23-3.09.79-3.93-.51-.57-.88-1.12-1.77-1.66-2.67-.8-.23-1.5-.81-1.69-1.66-.17-.01-.34-.02-.51-.04-2.97-.25-5.92-.92-8.76-1.8-4.79-1.49-13.56-4.7-13.06-11.1.11-1.38,1.07-2.47,2.5-2.5ZM156.95,122.2c-.73.89-1.44,1.83-2.26,2.63-.36.35-.74.69-1.08,1.07-.14.15-.25.28-.35.45-.03.06-.15.35-.13.19-.08.77-.58,1.43-1.39,1.49,0,.02,0,.04,0,.07-.05.54-.25,1.01-.74,1.3-.45.26-1.06.28-1.51,0-.83-.52-1.45-1.29-2.2-1.9-.38-.28-.77-.56-1.14-.85-.45-.36-.83-.79-1.14-1.28-.17-.26-.22-.58-.19-.88-.04-.03-.09-.06-.13-.09-.71-.6-1.39-1.24-2.1-1.84-.57-.48-1.18-.73-1.8-1.12-.84-.53-1.21-1.32-1.67-2.15-.37-.66-.87-1.17-1.43-1.67-1.3-1.14-2.53-2.25-3.61-3.61-.85-1.06-2.28-1.64-2.88-2.93-1.42-.67-2.6-1.55-3.6-2.84-.39-.51-.77-1.02-1.13-1.55-.41-.33-.45-.46-.32-.37-.03-.03-.06-.08-.09-.11-.26-.25-.47-.54-.66-.84-.5-.34-.94-.78-1.29-1.28-.29-.03-.58-.14-.81-.33-.21-.14-.43-.24-.64-.37-.21-.12-.42-.27-.59-.44-.12-.12-.22-.27-.32-.41-.05-.07-.1-.13-.14-.21-.17-.31-.28-.64-.27-1,.01-.47.2-.89.52-1.22.07-.08.16-.14.24-.21.11-.1.22-.2.31-.32.1-.1.2-.19.33-.27.12-.05.24-.1.36-.15.17-.05.35-.06.52-.04.26-.53.61-1.01,1.03-1.43.23-.35.51-.69.87-1.01,3.14-2.86,5.95-6.3,9.01-9.3,1.82-1.79,3.84-3.35,5.65-5.13.11-.11.4-.34.77-.64.06-.13.13-.26.2-.38.1-.26.21-.51.35-.76.26-.34.52-.67.78-1.01.56-.56,1.22-.95,1.96-1.2,2.15-5.26,10.92-2.57,9.39,3.4-.09.34-.21.68-.35,1.01.02,0,.03.01.05.02.17.13.34.26.51.39.23.23.38.5.51.78,3.94,1.75,7.07,4.91,10.3,7.72,2.37,2.06,5.29,4.03,7.23,6.62,1.76,1.34,3.37,2.87,4.68,4.7.85,1.19-.86,2.94-2.05,2.05-.19-.14-.38-.28-.56-.42.02.54-.27,1.1-.74,1.38-.11.07-.22.14-.33.21-.03.02-.03.02-.05.03,0,0,0,0-.02.02-.14.15-.31.28-.46.42-.33.34-.64.7-.93,1.07-.07.09-.14.18-.21.27,0,.01,0,0-.01.01,0,.01-.02.02-.04.06-.19.25-.39.5-.59.75-.31.36-.63.72-.96,1.06-1.04,1.06-2.19,2.02-3.41,2.88-.12.15-.26.29-.39.43-.01.21-.06.42-.18.62-.23.39-.67.66-1.13.72-.74.7-1.52,1.37-2.33,2-.75.75-1.49,1.53-2.2,2.31-1.02,1.12-2.01,2.25-2.97,3.42ZM233.6,132.54c-.98.78-2.04,1.42-3.07,2.12.07.14.12.27.16.41.1.33.12.66.04,1-.02.33-.11.64-.3.93-.47,1.09-1.28,2.05-2.13,2.87-.71.69-1.47,1.33-2.12,2.08-.22.26-.51.43-.83.55-1.14,2.18-3.02,3.55-4.79,5.28-2.07,2.03-3.95,4.23-6.12,6.17-1.07.95-2.19,1.87-3.16,2.93-.95,1.03-1.79,2.16-2.78,3.16-.93.94-2.01,1.71-2.99,2.6-1.09.98-2.11,2.01-3.1,3.09-.16.18-.33.31-.51.42-.72,1.19-1.87,2.07-2.89,3-1.12,1.02-2.19,2.07-3.13,3.25-.04.05-.08.1-.11.15-.4.55-.84.94-1.49,1.15-.64.21-1.35.05-1.93-.25-.54-.29-.99-.91-1.15-1.49-.01-.05-.02-.11-.03-.16-1.84-.8-2.84-2.51-3.94-4.14-.43-.63-1.28-1.54-2.01-2.31-.86-.9-1.76-1.77-2.64-2.65-3-3.04-6.02-6.05-9.26-8.84-.45-.1-.86-.32-1.18-.65-1.56-1.63-3.11-3.29-4.76-4.84-1.54-1.45-3.32-2.59-4.72-4.2-.78-.9-.93-2.06-.36-3.03-.21-.44-.33-.92-.33-1.43,0-1.13.64-2.18,1.47-2.9,1.47-1.28,3.3-2.01,4.97-2.97,2.17-1.24,4.26-2.6,6.53-3.67.05-.02.09-.03.14-.05.01-.76.37-1.51,1.18-2.01-.29-.54-.39-1.17-.17-1.77,1.01-2.8,2.81-5.09,4.64-7.4.59-.74,1.38-.9,2.13-.71,1.05-.58,1.93-1.65,2.97-2.2.93-.49,1.88-.37,2.59.1.44-.31.89-.62,1.34-.92,2.33-1.56,4.65,1.6,3.26,3.62.92-.42,1.84-.84,2.75-1.26.92-.71,1.96-1.25,3.03-1.75.17-.18.35-.35.58-.47,2.66-1.39,5.44-2.57,8-4.15,2.47-1.48,4.69,1.75,3.24,3.67.08,0,.16-.01.25-.01.8,0,1.47.39,1.91.95,1.83-.82,3.66-1.64,5.5-2.42.02-.01.05-.02.07-.03,0,0,0,0,0,0,.2-.08.4-.17.6-.26,2.65-1.11,4.38,3.28,1.93,4.57-.51.27-1.03.51-1.54.76.18.28.31.59.38.91.75-.2,1.51-.39,2.28-.54,2.58-.54,4.26,2.73,2.27,4.32.53.27.96.72,1.19,1.27.15.36.2.76.18,1.16.97,1,.99,2.79-.46,3.89-.44.33-.89.65-1.35.95.08-.02.16-.04.24-.05,1.53-.33,3.08-.85,4.66-.81.19,0,.36.03.53.07.28-.19.55-.39.82-.6,1.06-.84,2.49-1.05,3.54,0,.88.88,1.06,2.7,0,3.54ZM265.31,102.83c-.31.34-.71.54-1.13.64-.11.21-.24.42-.42.62-1.75,1.88-3.76,3.5-5.62,5.26-1.79,1.7-3.34,3.63-5.11,5.36-3.82,3.72-7.5,7.53-11.2,11.38-1.42,1.47-3.35.59-4.01-.85-.63.03-1.26-.19-1.78-.71-.89-.89-1.04-2.67,0-3.54.35-.29.68-.59,1.02-.88-.07.05-.14.1-.21.14-1.42.85-2.92.07-3.49-1.18-1.24,1.02-2.5,2.02-3.77,3,0,0,0,0,0,0,0,0,0,0,0,0-.17.13-.34.26-.5.39-1,.77-2.53.23-3.22-.64-.82-1.03-.61-2.33.2-3.28,1.15-1.36,2.33-2.7,3.5-4.04-1-.55-1.64-1.69-1.29-2.79-1.49-.09-2.62-1.67-2.27-3.14-.13-.09-.25-.19-.37-.3-.84.78-1.7,1.53-2.65,2.2-.93.65-2.26.32-3.03-.39-.78-.72-.97-2.14-.39-3.03.48-.73,1-1.43,1.54-2.12-.31-.07-.61-.21-.9-.43-.81-.62-1.14-1.64-.9-2.63.16-.64.42-1.24.68-1.84.09-.21.19-.43.29-.64.04-.09.09-.19.13-.28,0,0,0,0,0-.01,0-.02.02-.04.03-.06,0,0,0,0,0,0,0,0,0,0,0,0,.27-.66.71-1.17,1.26-1.47.12-.31.3-.62.58-.9.65-.67,1.33-1.3,2.02-1.92.07-.47.3-.93.75-1.31,2-1.66,3.99-3.34,5.89-5.11.78-.73,1.65-.86,2.4-.62.97-.88,1.94-1.76,2.93-2.61.7-.6,1.45-.76,2.12-.65.52-.98.62-2.15.9-3.25.3-1.16,1.19-1.72,2.14-1.77.91-.89,2.58-.85,3.45.08,1.1,1.18,2.26,2.29,3.34,3.48,1.07,1.18,2.21,2.29,3.41,3.33,1.17,1.02,2.33,1.99,3.32,3.19.34.41.63.85.91,1.3.87.1,1.56.67,1.92,1.43.86.68,1.62,1.53,2.39,2.32.71.73,1.51,1.36,2.27,2.04.98.87,1.94,1.77,2.88,2.7.99.99.92,2.54,0,3.54Z"/>
  <path class="cls-4" d="M209.82,115.64c-4.32,4.13-8.64,8.25-12.95,12.38-2.99-3.26-5.99-6.52-8.98-9.77l-25.56,24.64-13.42,13.43-48.19,48.18L.5,104.28,100.72,4.06l45.03,45.03-13.62,13.61-31.41-31.41L27.73,104.28l72.99,73,34.57-34.58,13.43-13.42,25.76-24.83c-4.71-4.85-9.41-9.69-14.12-14.53s-9.41-9.69-14.12-14.53c4.37-4.23,8.75-8.45,13.12-12.68,4.44,4.78,8.88,9.57,13.32,14.35l33.12,34.41c1.34,1.39,2.68,2.79,4.02,4.18Z"/>
  <path class="cls-2" d="M243.95,50.92l-13.81,13.8-36.4-36.4-34.38,34.38c-4.7,4.7-9.41,9.41-14.11,14.11l-24.5,24.5c10.18,9.99,20.36,19.99,30.55,29.98-4.59,4.59-9.18,9.18-13.78,13.78-14.6-14.65-29.21-29.3-43.81-43.95l38.42-38.42,13.62-13.61L193.93.9l50.02,50.02Z"/>
  <polygon class="cls-3" points="394.37 100.93 294.15 201.15 244.14 151.14 257.75 137.52 294.53 174.3 367.52 101.31 294.53 28.32 257.94 64.91 218.83 104.02 204.84 90.03 230.14 64.72 243.95 50.92 294.15 .71 394.37 100.93"/>
  <line class="cls-1" x1="174.48" y1="104.45" x2="187.89" y2="118.25"/>
  <path class="cls-3" d="M243.55,125.53c-4.03,4.15-8.06,8.3-12.09,12.45-14.88-15.67-29.75-31.33-44.63-47,3.96-3.88,7.91-7.76,11.87-11.64,14.95,15.4,29.9,30.79,44.85,46.19Z"/>
  <path class="cls-2" d="M294.15,101.12l-36.4,36.4-13.61,13.62-50.21,50.2c-15.47-16.24-30.94-32.47-46.42-48.71,4.14-3.96,8.28-7.92,12.43-11.89,11.27,11.18,22.53,22.37,33.8,33.55l37.02-37.02c4.61-4.61,9.22-9.21,13.83-13.82l22.15-22.15-24.95-25.13c4.41-4.86,8.82-9.73,13.24-14.59l39.12,39.53Z"/>
</svg>