<svg xmlns="http://www.w3.org/2000/svg" version="1.1" xmlns:xlink="http://www.w3.org/1999/xlink" xmlns:svgjs="http://svgjs.dev/svgjs" width="1500" height="1687" viewBox="0 0 1500 1687"><g transform="matrix(1,0,0,1,0.00017216230924077536,0)"><svg viewBox="0 0 320 360" data-background-color="#000000" preserveAspectRatio="xMidYMid meet" height="1687" width="1500" xmlns="http://www.w3.org/2000/svg" xmlns:xlink="http://www.w3.org/1999/xlink"><g id="tight-bounds" transform="matrix(1,0,0,1,-0.00003672795929787753,0)"><svg viewBox="0 0 320 360" height="360" width="320"><g><svg></svg></g><g><svg viewBox="0 0 320 360" height="360" width="320"><g><path transform="translate(-32.1528,-12.1528) scale(3.84303,3.84303)" d="M88.492 50l1.711-2.963c2.946-5.102 1.198-11.626-3.904-14.572l-2.963-1.711v-3.422c0-5.891-4.776-10.667-10.667-10.667h-3.422l-1.711-2.963c-2.946-5.102-9.47-6.85-14.572-3.904l-2.964 1.71-2.963-1.711c-5.102-2.945-11.626-1.197-14.572 3.905l-1.711 2.963h-3.422c-5.891 0-10.667 4.776-10.667 10.667v3.422l-2.963 1.711c-5.102 2.946-6.85 9.47-3.904 14.572l1.71 2.963-1.711 2.963c-2.945 5.102-1.197 11.626 3.905 14.572l2.963 1.711v3.422c0 5.891 4.776 10.667 10.667 10.667h3.422l1.711 2.963c2.946 5.102 9.47 6.85 14.572 3.904l2.963-1.71 2.963 1.711c5.102 2.946 11.626 1.198 14.572-3.904l1.711-2.963h3.422c5.891 0 10.667-4.776 10.667-10.667v-3.422l2.963-1.711c5.102-2.946 6.85-9.47 3.904-14.572zM85.832 33.273c2.252 1.3 3.862 3.399 4.535 5.91 0.673 2.511 0.328 5.135-0.972 7.386l-1.441 2.497-4.618-7.999v-9.236zM73.72 73.72l-15.038 8.682h-17.364l-15.038-8.682-8.682-15.038v-17.364l8.682-15.038 15.038-8.682h17.364l15.038 8.682 8.682 15.038v17.364zM82.401 60.549v8.158l-7.065 4.079zM72.786 75.336l-4.079 7.065h-8.158zM57.065 83.335l-7.065 4.079-7.065-4.079zM39.451 82.401h-8.158l-4.079-7.065zM24.664 72.786l-7.065-4.079v-8.158zM16.665 57.065l-4.079-7.065 4.079-7.065zM17.599 39.451v-8.158l7.065-4.079zM27.214 24.664l4.079-7.065h8.158zM42.935 16.665l7.065-4.079 7.065 4.079zM60.549 17.599h8.158l4.079 7.065zM75.336 27.214l7.065 4.079v8.158zM83.335 42.935l4.079 7.065-4.079 7.065zM72.668 17.599c2.6 0 5.044 1.012 6.883 2.851 1.838 1.838 2.851 4.283 2.851 6.883v2.883l-7.999-4.618-4.618-7.999zM53.43 10.606c2.252-1.3 4.875-1.645 7.386-0.972 2.511 0.673 4.61 2.284 5.91 4.535l1.441 2.497h-9.236l-7.999-4.618zM33.273 14.168c1.3-2.252 3.399-3.862 5.91-4.535 2.511-0.673 5.135-0.328 7.386 0.972l2.497 1.441-7.999 4.618h-9.236zM17.599 27.332c0-2.6 1.012-5.044 2.851-6.883 1.838-1.838 4.283-2.851 6.883-2.851h2.883l-4.618 7.999-7.999 4.618zM10.606 46.57c-1.3-2.252-1.645-4.875-0.972-7.386 0.673-2.511 2.284-4.61 4.535-5.91l2.497-1.441v9.236l-4.618 7.999zM14.168 66.727c-2.252-1.3-3.862-3.399-4.535-5.91-0.673-2.511-0.328-5.135 0.972-7.386l1.441-2.497 4.618 7.999v9.236zM27.332 82.401c-2.6 0-5.044-1.012-6.883-2.851-1.838-1.838-2.851-4.283-2.851-6.883v-2.883l7.999 4.618 4.618 7.999zM46.57 89.394c-2.252 1.3-4.875 1.645-7.386 0.972-2.511-0.673-4.61-2.284-5.91-4.535l-1.441-2.497h9.236l7.999 4.618zM66.727 85.832c-1.3 2.252-3.399 3.862-5.91 4.535-2.511 0.673-5.135 0.328-7.386-0.972l-2.497-1.441 7.999-4.618h9.236zM82.401 72.668c0 2.6-1.012 5.044-2.851 6.883-1.838 1.838-4.283 2.851-6.883 2.851h-2.883l4.618-7.999 7.999-4.618zM90.367 60.816c-0.673 2.511-2.284 4.61-4.535 5.91l-2.497 1.441v-9.236l4.618-7.999 1.441 2.497c1.3 2.253 1.646 4.876 0.973 7.387z" fill="#9eadbc" fill-rule="nonzero" stroke="none" stroke-width="1" stroke-linecap="butt" stroke-linejoin="miter" stroke-miterlimit="10" stroke-dasharray="" stroke-dashoffset="0" font-family="none" font-weight="none" font-size="none" text-anchor="none" style="mix-blend-mode: normal" data-fill-palette-color="tertiary"></path></g><g transform="matrix(1,0,0,1,64.00000000000001,149.33739930184754)"><svg viewBox="0 0 191.99999999999997 61.32520139630492" height="61.32520139630492" width="191.99999999999997"><g><svg viewBox="0 0 191.99999999999997 61.32520139630492" height="61.32520139630492" width="191.99999999999997"><g><svg viewBox="0 0 347.1195689971237 110.87071602784985" height="61.32520139630492" width="191.99999999999997"><g transform="matrix(1,0,0,1,155.11956899712365,0)"><svg viewBox="0 0 192 110.87071602784985" height="110.87071602784985" width="192"><g id="textblocktransform"><svg viewBox="0 0 192 110.87071602784985" height="110.87071602784985" width="192" id="textblock"><g><svg viewBox="0 0 192 79.06423777564717" height="79.06423777564717" width="192"><g transform="matrix(1,0,0,1,0,0)"><svg width="192" viewBox="4.5 -42.3 104.29 42.949999999999996" height="79.06423777564717" data-palette-color="#a9bbc4"><path d="M11.55 0.65Q7.8 0.65 6.15-0.85 4.5-2.35 4.5-5.9L4.5-5.9 4.5-42.3 9.2-42.3 9.2-7.15Q9.2-5.15 9.83-4.42 10.45-3.7 12.2-3.7L12.2-3.7Q13.6-3.7 14.7-4L14.7-4 14.7 0.3Q12.7 0.65 11.55 0.65L11.55 0.65ZM20.45-32.85L20.45-40.4 25.15-40.4 25.15-32.85 20.45-32.85ZM20.45 0L20.45-27.65 25.15-27.65 25.15 0 20.45 0ZM65.25-28.25Q70.3-28.25 72.72-25.55 75.14-22.85 75.14-16.65L75.14-16.65 75.14 0 70.45 0 70.45-16.65Q70.45-20.6 69.17-22.23 67.89-23.85 64.59-23.85L64.59-23.85Q60.7-23.85 56.8-20.1L56.8-20.1Q57-18.7 57-16.65L57-16.65 57 0 52.3 0 52.3-16.65Q52.3-20.6 51.02-22.23 49.75-23.85 46.45-23.85L46.45-23.85Q42.64-23.85 38.84-20.45L38.84-20.45 38.84 0 34.14 0 34.14-27.65 38.84-27.65 38.84-24.7Q42.89-28.25 47.09-28.25L47.09-28.25Q50.45-28.25 52.59-27.13 54.75-26 55.84-23.55L55.84-23.55Q60.39-28.25 65.25-28.25L65.25-28.25ZM83.04-32.85L83.04-40.4 87.74-40.4 87.74-32.85 83.04-32.85ZM83.04 0L83.04-27.65 87.74-27.65 87.74 0 83.04 0ZM108.79-22.95L102.39-22.95 102.39-7.15Q102.39-5.15 103.02-4.42 103.64-3.7 105.34-3.7L105.34-3.7Q106.84-3.7 108.54-4.1L108.54-4.1 108.54 0.15Q106.29 0.65 104.54 0.65L104.54 0.65Q100.74 0.65 99.22-0.9 97.69-2.45 97.69-6.1L97.69-6.1 97.69-22.95 94.09-22.95 94.09-27.3 97.69-27.3 97.69-36.8 102.39-36.8 102.39-27.3 108.79-27.3 108.79-22.95Z" opacity="1" transform="matrix(1,0,0,1,0,0)" fill="#a9bbc4" class="wordmark-text-0" data-fill-palette-color="primary" id="text-0"></path></svg></g></svg></g><g transform="matrix(1,0,0,1,0,97.72940677277086)"><svg viewBox="0 0 182.39999999999998 13.141309255079006" height="13.141309255079006" width="182.39999999999998"><g transform="matrix(1,0,0,1,0,0)"><svg width="182.39999999999998" viewBox="2.5 -37.8 531.55 38.3" height="13.141309255079006" data-palette-color="#ffffff"><path d="M18.95 0.5L18.95 0.5Q10.2 0.5 6.35-3.03 2.5-6.55 2.5-14.35L2.5-14.35 2.5-27.35 2.55-32.4 2.5-35.4 13.7-35.4 13.7-16.85Q13.7-14.55 14.05-12.78 14.4-11 15.55-10 16.7-9 19.05-9L19.05-9Q21.45-9 22.6-9.9 23.75-10.8 24.1-12.55 24.45-14.3 24.45-16.85L24.45-16.85 24.45-35.4 35.4-35.4 35.4-14.35Q35.4-9.25 33.75-5.98 32.1-2.7 28.5-1.1 24.9 0.5 18.95 0.5ZM51.9 0L40.9 0 40.9-15.05 39.9-20.55 41.45-23.6 50.9-23.6 50.9-21.45 51.35-21.15Q51.9-21.65 52.87-22.33 53.85-23 55.25-23.55 56.65-24.1 58.4-24.1L58.4-24.1Q62.5-24.1 64.45-21.55 66.4-19 66.4-14.4L66.4-14.4 66.4-8 67.4-3 66.4 0 55.35 0 55.35-12.65Q55.35-14.15 54.67-14.88 54-15.6 52.4-15.6L52.4-15.6 51.9-15.1 51.9 0ZM82.34 0L71.34 0 71.34-27.4 70.3-32.4 71.34-35.4 82.34-35.4 82.34 0ZM99.89-31.45L92.49-25.05 85.09-31.45 92.49-37.8 99.89-31.45ZM97.94 0L86.94 0 86.94-16.55 85.89-20.55 86.89-23.6 97.94-23.6 97.94 0ZM102.89-15.05L101.89-20.55 103.44-23.6 112.89-23.6 112.89-21.45 113.34-21.15Q113.89-21.65 114.87-22.33 115.84-23 117.22-23.55 118.59-24.1 120.39-24.1L120.39-24.1Q124.74-24.1 126.74-21.1L126.74-21.1Q127.84-22.3 129.51-23.23 131.19-24.15 133.64-24.15L133.64-24.15Q138.14-24.15 140.64-21.6 143.14-19.05 143.14-14.45L143.14-14.45 143.14-8.05 144.19-3.05 143.14 0 132.09 0 132.09-12.6Q132.09-14.2 131.66-14.88 131.24-15.55 130.24-15.55L130.24-15.55Q129.29-15.55 128.84-14.7 128.39-13.85 128.39-12.55L128.39-12.55 128.39 0 117.34 0 117.34-12.65Q117.34-14.15 116.67-14.88 115.99-15.6 114.39-15.6L114.39-15.6 113.89-15.1 113.89 0 102.89 0 102.89-15.05ZM160.94-31.45L153.54-25.05 146.14-31.45 153.54-37.8 160.94-31.45ZM158.99 0L147.99 0 147.99-16.55 146.94-20.55 147.94-23.6 158.99-23.6 158.99 0ZM174.09 0.5L174.09 0.5Q169.69 0.5 167.63-1.3 165.59-3.1 165.59-6.55L165.59-6.55 165.59-15.95 161.44-15.95 161.44-22.2 165.09-24.65 168.63-30.85 176.53-30.85 176.53-23.6 184.03-23.6 184.03-15.6 176.53-15.6 176.53-7.9 184.03-7.95 184.03-1Q184.03-1 183.13-0.78 182.24-0.55 180.76-0.25 179.28 0.05 177.53 0.28 175.78 0.5 174.09 0.5ZM200.28 0.5L200.28 0.5Q196.43 0.5 193.31-0.63 190.18-1.75 188.36-4.42 186.53-7.1 186.53-11.8L186.53-11.8Q186.53-15.1 187.66-17.45 188.78-19.8 190.68-21.28 192.58-22.75 194.93-23.43 197.28-24.1 199.78-24.1L199.78-24.1Q202.93-24.1 205.06-23.7 207.18-23.3 208.48-22.8 209.78-22.3 210.48-21.9L210.48-21.9 212.98-13.95 211.98-10.85 197.48-10.85Q197.68-9.45 198.93-8.47 200.18-7.5 203.28-7.5L203.28-7.5Q206.23-7.5 208.18-8.15 210.13-8.8 210.98-9.15L210.98-9.15 210.98-1.45Q209.98-0.9 208.23-0.45 206.48 0 204.41 0.25 202.33 0.5 200.28 0.5ZM197.33-14.1L197.33-14.1 202.43-15.05 201.98-16.65Q201.28-17.05 200.28-17.05L200.28-17.05Q198.63-17.05 197.96-16.15 197.28-15.25 197.33-14.1ZM224.18 0.5L224.18 0.5Q221.83 0.5 219.66-0.7 217.48-1.9 216.08-4.5 214.68-7.1 214.68-11.3L214.68-11.3Q214.68-15.95 216.06-18.75 217.43-21.55 219.63-22.83 221.83-24.1 224.18-24.1L224.18-24.1Q226.38-24.1 227.73-23.68 229.08-23.25 229.68-22.9L229.68-22.9 229.18-32.35 229.68-35.35 240.73-35.35 240.73-8 241.73-3 240.73 0.05 230.18 0.05 230.18-2.4 229.68-2.65Q229.68-2.65 229.41-2.18 229.13-1.7 228.5-1.07 227.88-0.45 226.83 0.03 225.78 0.5 224.18 0.5ZM229.18-7.75L229.18-7.75 229.68-8.25 229.68-13.05Q229.68-14.2 229.18-14.88 228.68-15.55 227.88-15.55L227.88-15.55Q226.88-15.55 226.28-14.83 225.68-14.1 225.68-12.3L225.68-12.3Q225.68-10.05 226.73-8.9 227.78-7.75 229.18-7.75ZM281.73 0L259.73 0 259.73-27.4 258.73-32.4 259.73-35.4 278.73-35.4Q284.38-35.4 287.78-33.2 291.18-31 291.18-26.5L291.18-26.5Q291.18-24.05 290.3-22.48 289.43-20.9 288.08-19.8L288.08-19.8Q289.78-19.4 291.28-18.32 292.78-17.25 293.73-15.48 294.68-13.7 294.68-11.1L294.68-11.1Q294.68-5.85 291.6-2.93 288.53 0 281.73 0L281.73 0ZM270.73-25.9L270.73-21.65 276.63-21.65Q278.33-21.65 279.08-22.18 279.83-22.7 279.83-23.8L279.83-23.8Q279.83-24.95 278.73-25.43 277.63-25.9 276.13-25.9L276.13-25.9 270.73-25.9ZM270.73-14.2L270.73-9.5 279.23-9.5Q281.23-9.5 282.03-10.13 282.83-10.75 282.83-11.8L282.83-11.8Q282.83-14.2 279.73-14.2L279.73-14.2 270.73-14.2ZM310.42 0L299.42 0 299.42-27.4 298.37-32.4 299.42-35.4 310.42-35.4 310.42 0ZM326.72 0.5L326.72 0.5Q320.62 0.5 317.02-2.4 313.42-5.3 313.42-11.8L313.42-11.8Q313.42-18.35 317.02-21.23 320.62-24.1 326.72-24.1L326.72-24.1Q333.02-24.1 336.47-21.23 339.92-18.35 339.92-11.8L339.92-11.8Q339.92-5.3 336.47-2.4 333.02 0.5 326.72 0.5ZM326.72-7.5L326.72-7.5Q327.67-7.5 328.27-8.28 328.87-9.05 328.87-11.8L328.87-11.8Q328.87-14.6 328.3-15.35 327.72-16.1 326.72-16.1L326.72-16.1Q325.77-16.1 325.12-15.35 324.47-14.6 324.47-11.8L324.47-11.8Q324.47-9.05 325.12-8.28 325.77-7.5 326.72-7.5ZM355.17 0.5L355.17 0.5Q351.47 0.5 348.44-0.65 345.42-1.8 343.67-4.5 341.92-7.2 341.92-11.8L341.92-11.8Q341.92-15.35 343.12-17.7 344.32-20.05 346.27-21.48 348.22-22.9 350.54-23.5 352.87-24.1 355.17-24.1L355.17-24.1Q357.92-24.1 359.82-23.88 361.72-23.65 362.52-23.55L362.52-23.55 366.42-19.15 361.92-12.7 356.17-15.6Q355.07-15.6 354.22-14.8 353.37-14 353.37-11.8L353.37-11.8Q353.37-9.5 354.39-8.75 355.42-8 357.17-8L357.17-8Q360.27-8 362.52-8.83 364.77-9.65 365.87-10.15L365.87-10.15 365.87-1.45Q363.97-0.5 361.09 0 358.22 0.5 355.17 0.5ZM382.56 0L371.47 0 371.47-27.4 370.42-32.4 371.47-35.4 382.56-35.4 382.56-27.4 382.02-14.45 382.97-14.45 385.77-23.6 397.97-23.6 397.97-20.6 392.42-13 396.12-8 400.81-2.95 400.81 0 389.12 0 384.47-8.25 382.56-7.75 382.56 0ZM415.56 0.5L415.56 0.5Q411.86 0.5 408.84-0.65 405.81-1.8 404.06-4.5 402.31-7.2 402.31-11.8L402.31-11.8Q402.31-15.35 403.51-17.7 404.71-20.05 406.66-21.48 408.61-22.9 410.94-23.5 413.26-24.1 415.56-24.1L415.56-24.1Q418.31-24.1 420.21-23.88 422.11-23.65 422.91-23.55L422.91-23.55 426.81-19.15 422.31-12.7 416.56-15.6Q415.46-15.6 414.61-14.8 413.76-14 413.76-11.8L413.76-11.8Q413.76-9.5 414.79-8.75 415.81-8 417.56-8L417.56-8Q420.66-8 422.91-8.83 425.16-9.65 426.26-10.15L426.26-10.15 426.26-1.45Q424.36-0.5 421.49 0 418.61 0.5 415.56 0.5ZM442.51 0L431.51 0 431.51-27.4 430.51-32.4 431.51-35.4 442.51-35.4 442.51-27.3 442.01-21.75 442.51-21.5Q442.76-21.75 443.61-22.38 444.46-23 445.86-23.58 447.26-24.15 449.01-24.15L449.01-24.15Q453.51-24.15 455.26-21.6 457.01-19.05 457.01-14.45L457.01-14.45 457.01-7.95 458.06-3.05 457.01 0 445.96 0 445.96-12.65Q445.96-14.25 445.31-14.93 444.66-15.6 443.01-15.6L443.01-15.6 442.51-15.1 442.51 0ZM468.26 0.5L468.26 0.5Q464.91 0.5 462.83-1.07 460.76-2.65 460.76-6.6L460.76-6.6Q460.76-10.25 463.18-12.13 465.61-14 469.76-14L469.76-14Q472.01-14 473.36-13.58 474.71-13.15 475.41-12.75L475.41-12.75 475.76-13Q475.76-14.55 475.21-15.33 474.66-16.1 472.56-16.1L472.56-16.1Q470.71-16.1 468.78-15.73 466.86-15.35 465.16-14.78 463.46-14.2 462.26-13.55L462.26-13.55 462.26-22.55Q463.06-22.8 464.81-23.15 466.56-23.5 469.01-23.78 471.46-24.05 474.26-24.05L474.26-24.05Q478.96-24.05 481.71-22.93 484.46-21.8 485.63-19.68 486.81-17.55 486.81-14.6L486.81-14.6 486.81-7.95 487.81-2.9 486.81 0.05 476.26 0.05 476.26-2.4 475.76-2.65Q474.96-1.5 473.03-0.5 471.11 0.5 468.26 0.5ZM473.91-6.05L473.91-6.05Q474.66-6.05 475.16-6.3 475.66-6.55 475.76-6.6L475.76-6.6 475.76-7.7Q475.76-8.45 475.31-9 474.86-9.55 473.96-9.55L473.96-9.55Q473.16-9.55 472.46-9.13 471.76-8.7 471.76-7.65L471.76-7.65Q471.76-6.05 473.91-6.05ZM504.56-31.45L497.15-25.05 489.75-31.45 497.15-37.8 504.56-31.45ZM502.61 0L491.61 0 491.61-16.55 490.56-20.55 491.56-23.6 502.61-23.6 502.61 0ZM518.55 0L507.55 0 507.55-15.05 506.55-20.55 508.1-23.6 517.55-23.6 517.55-21.45 518-21.15Q518.55-21.65 519.53-22.33 520.5-23 521.9-23.55 523.3-24.1 525.05-24.1L525.05-24.1Q529.15-24.1 531.1-21.55 533.05-19 533.05-14.4L533.05-14.4 533.05-8 534.05-3 533.05 0 522 0 522-12.65Q522-14.15 521.33-14.88 520.65-15.6 519.05-15.6L519.05-15.6 518.55-15.1 518.55 0Z" opacity="1" transform="matrix(1,0,0,1,0,0)" fill="#ffffff" class="slogan-text-1" data-fill-palette-color="secondary" id="text-1"></path></svg></g></svg></g></svg></g></svg></g><g transform="matrix(1,0,0,1,0,23.002467080210216)"><svg viewBox="0 0 136.45439999999996 64.86578186742942" height="64.86578186742942" width="136.45439999999996"><g><svg xmlns="http://www.w3.org/2000/svg" xmlns:xlink="http://www.w3.org/1999/xlink" version="1.1" x="0" y="0" viewBox="1.9 26.976999999999997 96.10700031552784 45.686" enable-background="new 0 0 100 100" xml:space="preserve" height="64.86578186742942" width="136.45439999999996" class="icon-icon-0" data-fill-palette-color="accent" id="icon-0"><path d="M45.264 60.825c-0.2 0.077-0.408 0.114-0.616 0.114-0.418 0-0.831-0.152-1.151-0.445-0.479-0.436-0.67-1.104-0.494-1.728l1.221-4.327c-5.317 7.252-10.752 11.975-19.48 11.975-9.15 0-16.595-7.445-16.595-16.595 0-3.267 0.952-6.314 2.588-8.885l0.391 0.784c0.265 0.53 0.785 0.885 1.375 0.939 0.051 0.004 0.103 0.007 0.155 0.007 0.534 0 1.042-0.251 1.366-0.683l7.746-10.31c0.389-0.518 0.452-1.211 0.163-1.79s-0.881-0.945-1.528-0.946L7.508 28.926c0 0 0 0-0.001 0-0.592 0-1.142 0.306-1.453 0.809-0.312 0.504-0.34 1.133-0.076 1.663l1.651 3.309C4.066 38.737 1.9 44.03 1.9 49.819c0 12.595 10.247 22.843 22.843 22.843 6.753 0 12.588-2.274 17.839-6.953 1.918-1.71 3.998-3.92 5.638-6.008l-0.01-0.014L45.264 60.825z" fill="#2e48d8" data-fill-palette-color="accent"></path><path d="M68.594 67.006L64.1 55.047c-0.209-0.555-0.689-0.961-1.271-1.076-0.582-0.113-1.181 0.081-1.583 0.516l-1.85 1.994c-1.521-2.051-3.002-4.308-4.526-6.66l0.001-0.001-3.747-5.692c-2.59-3.79-5.313-7.321-8.541-10.197-5.251-4.679-11.086-6.954-17.839-6.954-0.288 0-0.573 0.007-0.858 0.018 0.413 0.396 0.763 0.866 1.029 1.399 0.777 1.558 0.697 3.364-0.183 4.833 0.004 0 0.008 0 0.012 0 10.468 0 16.2 6.789 22.67 16.595l3.71 5.692c1.273 1.928 2.581 3.824 3.964 5.617l-1.684 1.814c-0.402 0.435-0.553 1.047-0.395 1.617s0.6 1.02 1.169 1.186l12.378 3.615c0.158 0.045 0.32 0.068 0.479 0.068 0.008 0 0.016 0 0.023 0 0.936-0.01 1.69-0.771 1.69-1.709C68.75 67.466 68.693 67.225 68.594 67.006z" fill="#2e48d8" data-fill-palette-color="accent"></path><path d="M91.317 33.667c-4.315-4.314-10.052-6.69-16.152-6.69-5.321 0-9.577 1.732-13.19 4.461l-1.949-1.775c-0.438-0.398-1.051-0.542-1.621-0.379-0.569 0.163-1.014 0.609-1.175 1.179l-3.503 12.41c-0.176 0.624 0.016 1.292 0.494 1.728 0.32 0.292 0.732 0.446 1.152 0.446 0.207 0 0.415-0.038 0.615-0.115l12.03-4.646c0.552-0.213 0.955-0.698 1.063-1.28 0.109-0.582-0.091-1.179-0.529-1.578l-1.838-1.674c2.447-1.597 5.197-2.529 8.45-2.529 9.149 0 16.595 7.444 16.595 16.595 0 9.149-7.445 16.595-16.595 16.595-1.187 0-2.305-0.126-3.366-0.361 0.188 0.535 0.283 1.094 0.283 1.668 0 1.794-0.953 3.38-2.378 4.273 1.69 0.433 3.503 0.668 5.461 0.668 12.595 0 22.843-10.248 22.843-22.843C98.008 43.717 95.632 37.981 91.317 33.667z" fill="#2e48d8" data-fill-palette-color="accent"></path></svg></g></svg></g></svg></g></svg></g></svg></g></svg></g><defs></defs></svg><rect width="320" height="360" fill="none" stroke="none" visibility="hidden"></rect></g></svg></g></svg>
